<svg width="40" height="40" viewBox="0 0 40 40" fill="none" xmlns="http://www.w3.org/2000/svg">
<path d="M13.8872 9.39227C13.7723 9.74594 13.8854 10.125 14.1752 10.358L16.7561 12.4324L15.8874 15.6277C15.7899 15.9864 15.9213 16.3595 16.2223 16.5784C16.5234 16.7969 16.9186 16.8065 17.2298 16.6029L20.0002 14.7894L22.7706 16.603C22.92 16.7007 23.0887 16.7493 23.257 16.7493C23.4395 16.7493 23.6216 16.6922 23.778 16.5784C24.0791 16.3598 24.2106 15.9864 24.1128 15.6277L23.2441 12.4325L25.8248 10.3582C26.1149 10.1252 26.2281 9.74609 26.1131 9.39227C25.9981 9.03836 25.6838 8.79813 25.3123 8.78016L22.005 8.61891L20.8297 5.52344C20.6977 5.1757 20.372 4.95094 20.0001 4.95094C19.6281 4.95094 19.3024 5.17562 19.1706 5.52336L17.9952 8.61898L14.6881 8.78016C14.3165 8.79813 14.0021 9.03836 13.8872 9.39227ZM18.2931 9.85586C18.6456 9.83867 18.9543 9.61438 19.0794 9.28453L20 6.85992L20.9206 9.28477C21.0459 9.61453 21.3547 9.83867 21.7069 9.85586L24.2973 9.98219L22.2757 11.607C22.0006 11.8281 21.8828 12.191 21.9754 12.5313L22.6558 15.034L20.4858 13.6134C20.3382 13.5169 20.1691 13.4686 19.9999 13.4686C19.8308 13.4686 19.6615 13.517 19.5138 13.6135L17.344 15.034L18.0244 12.5315C18.117 12.1909 17.9991 11.828 17.724 11.607L15.7025 9.98227L18.2931 9.85586ZM19.375 2.91859V0.625C19.375 0.279844 19.6548 0 20 0C20.3452 0 20.625 0.279844 20.625 0.625V2.91859C20.625 3.26375 20.3452 3.54359 20 3.54359C19.6548 3.54359 19.375 3.26375 19.375 2.91859ZM23.1812 6.62156C22.9502 6.36508 22.9709 5.96984 23.2274 5.73891L25.7833 3.4375C26.0398 3.20648 26.435 3.22719 26.666 3.48375C26.897 3.74023 26.8763 4.13547 26.6198 4.36641L24.0638 6.66781C23.9444 6.77539 23.7948 6.82836 23.6458 6.82836C23.4749 6.82836 23.3046 6.75867 23.1812 6.62156ZM13.334 3.48375C13.5649 3.22719 13.9601 3.20648 14.2167 3.4375L16.7727 5.73891C17.0291 5.96984 17.0498 6.36508 16.8189 6.62156C16.6955 6.75859 16.5252 6.82836 16.3542 6.82836C16.2052 6.82836 16.0557 6.77539 15.9362 6.66781L13.3802 4.36641C13.1237 4.13547 13.1031 3.74023 13.334 3.48375ZM28.0183 10.358L30.5991 12.4324L29.7305 15.6277C29.633 15.9864 29.7643 16.3595 30.0653 16.5784C30.3662 16.7969 30.7615 16.8064 31.0728 16.6029L33.8432 14.7894L36.6137 16.603C36.7631 16.7007 36.9317 16.7493 37.1001 16.7493C37.2826 16.7493 37.4647 16.6922 37.621 16.5784C37.922 16.3599 38.0534 15.9867 37.9559 15.6277L37.0872 12.4325L39.6679 10.3582C39.9579 10.1253 40.071 9.74617 39.956 9.39227C39.8411 9.03836 39.5267 8.79813 39.1553 8.78016L35.848 8.61891L34.6728 5.52344C34.5409 5.1757 34.2152 4.95094 33.8432 4.95094C33.4712 4.95094 33.1455 5.17562 33.0135 5.52336L31.8383 8.61891L28.5313 8.78008C28.1595 8.79805 27.8452 9.03836 27.7302 9.39227C27.6152 9.74609 27.7284 10.1252 28.0183 10.358ZM32.1361 9.85586C32.4887 9.83867 32.7974 9.61438 32.9226 9.28445L33.8431 6.85984L34.7636 9.28437C34.8888 9.61438 35.1976 9.83867 35.55 9.85578L38.1404 9.98211L36.1191 11.6067C35.8438 11.8278 35.7259 12.1908 35.8185 12.5312L36.4989 15.0339L34.3289 13.6134C34.1813 13.5168 34.0121 13.4685 33.843 13.4685C33.6738 13.4685 33.5045 13.5169 33.357 13.6134L31.1871 15.0339L31.8675 12.5314C31.9601 12.191 31.8423 11.8281 31.5671 11.6069L29.5456 9.98211L32.1361 9.85586ZM0.332035 10.358L2.91289 12.4324L2.04422 15.6277C1.94672 15.9864 2.07805 16.3595 2.37907 16.5784C2.68016 16.7969 3.07539 16.8065 3.38657 16.6029L6.15696 14.7894L8.92743 16.603C9.0768 16.7007 9.24547 16.7493 9.41383 16.7493C9.59633 16.7493 9.77844 16.6922 9.93477 16.5784C10.2358 16.3599 10.3672 15.9867 10.2696 15.6277L9.40094 12.4325L11.9816 10.3582C12.2715 10.1255 12.3847 9.74641 12.2698 9.39188C12.1546 9.0382 11.8402 8.79805 11.4691 8.78008L8.1618 8.61883L6.98657 5.52344C6.85461 5.1757 6.52891 4.95094 6.15696 4.95094C5.78493 4.95094 5.45922 5.17562 5.32727 5.52336L4.15203 8.61891L0.845004 8.78008C0.473363 8.79805 0.158988 9.03836 0.0441444 9.39188C-0.07109 9.74586 0.0419569 10.1252 0.332035 10.358ZM4.44985 9.85586C4.80243 9.83867 5.11118 9.61438 5.23633 9.28445L6.15688 6.85984L7.07735 9.28437C7.20258 9.61438 7.51133 9.83867 7.86375 9.85578L10.4541 9.98211L8.43282 11.6067C8.15758 11.8278 8.03961 12.1908 8.13227 12.5312L8.81266 15.0339L6.64266 13.6134C6.495 13.5168 6.32586 13.4685 6.15672 13.4685C5.9875 13.4685 5.81829 13.5169 5.67071 13.6134L3.50086 15.0339L4.18125 12.5314C4.27383 12.191 4.15602 11.8281 3.88086 11.6069L1.85938 9.98211L4.44985 9.85586ZM39.9016 33.1979C39.4619 31.7777 38.5612 30.5026 37.3653 29.6071C36.7928 29.1784 36.1694 28.8445 35.5117 28.6081C36.4235 27.8925 37.011 26.7816 37.011 25.5352C37.011 23.3816 35.2589 21.6296 33.1054 21.6296C30.9518 21.6296 29.1997 23.3816 29.1997 25.5352C29.1997 26.7801 29.7858 27.8899 30.6958 28.6056C29.4762 29.0409 28.3957 29.8058 27.5683 30.8364C27.1816 30.2954 26.7355 29.7929 26.234 29.3394C25.2235 28.4255 24.0377 27.7545 22.7605 27.3578C24.1148 26.46 25.0102 24.9227 25.0102 23.1797C25.0102 20.4172 22.7626 18.1697 20.0001 18.1697C17.2376 18.1697 14.99 20.4172 14.99 23.1797C14.99 24.9227 15.8852 26.46 17.2395 27.3578C15.9623 27.7544 14.7765 28.4255 13.766 29.3394C13.2645 29.7929 12.8184 30.2954 12.4318 30.8363C11.6045 29.8056 10.524 29.0408 9.3043 28.6054C10.2142 27.8897 10.8004 26.7798 10.8004 25.535C10.8004 23.3814 9.04829 21.6294 6.89477 21.6294C4.74118 21.6294 2.98907 23.3814 2.98907 25.535C2.98907 26.7812 3.57657 27.8923 4.48829 28.6079C3.83063 28.8443 3.20719 29.1782 2.63461 29.6069C1.43875 30.5023 0.538051 31.7775 0.098285 33.1976C-0.104918 33.8535 0.00766001 34.5192 0.415238 35.0722C0.822738 35.625 1.42539 35.9294 2.11211 35.9294H10.7522V37.0573C10.7522 38.68 12.0723 40.0001 13.6949 40.0001H26.3051C27.9277 40.0001 29.2478 38.68 29.2479 37.0573V35.9297H37.8879C38.5747 35.9297 39.1773 35.6252 39.5848 35.0725C39.9923 34.5195 40.1048 33.8538 39.9016 33.1979ZM33.1054 22.8796C34.5697 22.8796 35.761 24.0709 35.761 25.5352C35.761 26.9996 34.5697 28.1909 33.1054 28.1909C31.641 28.1909 30.4497 26.9996 30.4497 25.5352C30.4497 24.0709 31.641 22.8796 33.1054 22.8796ZM16.24 23.1797C16.24 21.1064 17.9268 19.4197 20.0001 19.4197C22.0734 19.4197 23.7602 21.1064 23.7602 23.1797C23.7602 25.2523 22.0745 26.9386 20.0021 26.9397C20.0014 26.9397 20.0006 26.9397 20 26.9397C19.9994 26.9397 19.9987 26.9397 19.998 26.9397C17.9256 26.9385 16.24 25.2523 16.24 23.1797ZM6.89477 22.8793C8.35907 22.8793 9.5504 24.0706 9.5504 25.5349C9.5504 26.9993 8.35907 28.1906 6.89477 28.1906C5.43039 28.1906 4.23907 26.9993 4.23907 25.5349C4.23907 24.0706 5.43039 22.8793 6.89477 22.8793ZM10.8334 34.6793H2.11219C1.82454 34.6793 1.59219 34.562 1.42149 34.3304C1.25071 34.0988 1.20735 33.8421 1.29243 33.5673C2.0568 31.099 4.30829 29.4406 6.89477 29.4406C8.85125 29.4406 10.6335 30.3859 11.7297 31.9862C11.2963 32.828 10.9928 33.7355 10.8334 34.6793ZM27.9979 37.0573C27.9978 37.9906 27.2384 38.75 26.3051 38.75H13.6949C12.7616 38.75 12.0022 37.9906 12.0022 37.0573V35.3383C12.4547 31.2611 15.8863 28.1907 19.998 28.1897C19.9987 28.1897 19.9994 28.1898 20.0001 28.1898C20.0008 28.1898 20.0015 28.1897 20.0021 28.1897C24.1138 28.1908 27.5452 31.2611 27.9979 35.3383V37.0573ZM38.5786 34.3308C38.4079 34.5623 38.1756 34.6796 37.8879 34.6796H29.1668C29.0073 33.7357 28.7038 32.8283 28.2705 31.9863C29.3667 30.3862 31.1489 29.4409 33.1053 29.4409C35.6918 29.4409 37.9433 31.0994 38.7077 33.5677C38.7927 33.8423 38.7493 34.0991 38.5786 34.3308Z" fill="white"/>
</svg>
