<svg width="40" height="40" viewBox="0 0 40 40" fill="none" xmlns="http://www.w3.org/2000/svg">
<mask id="mask0_21807_4504" style="mask-type:luminance" maskUnits="userSpaceOnUse" x="0" y="0" width="40" height="40">
<path d="M0 0H40V40H0V0Z" fill="white"/>
</mask>
<g mask="url(#mask0_21807_4504)">
<path d="M13.8904 19.4803C14.1959 19.7849 14.1959 20.2795 13.8904 20.585C13.5858 20.8896 13.0913 20.8896 12.7857 20.585C12.4803 20.2795 12.4803 19.7849 12.7857 19.4803C13.0913 19.1749 13.5858 19.1749 13.8904 19.4803Z" fill="white"/>
<path d="M17.4821 11.4701L22.0939 6.85762C24.2134 4.73809 27.0712 3.35676 29.8454 2.45606C34.6595 0.893557 39.2189 0.781055 39.2189 0.781055C39.2189 0.781055 39.1064 5.34043 37.5439 10.1545C36.6432 12.9287 35.2618 15.7865 33.1423 17.9061L19.9674 31.0811L8.91895 20.0326L17.4821 11.4701Z" stroke="white" stroke-miterlimit="10" stroke-linecap="round" stroke-linejoin="round"/>
<path d="M18.0337 29.148L15.5485 33.291L6.70947 24.452L10.8524 21.9668" stroke="white" stroke-miterlimit="10" stroke-linecap="round" stroke-linejoin="round"/>
<path d="M28.5304 22.5187L27.7015 29.9766L21.0726 36.6055L20.2437 30.8047" stroke="white" stroke-miterlimit="10" stroke-linecap="round" stroke-linejoin="round"/>
<path d="M9.19531 19.7559L3.39453 18.9269L10.0234 12.298L17.4812 11.4691" stroke="white" stroke-miterlimit="10" stroke-linecap="round" stroke-linejoin="round"/>
<path d="M8.91875 31.0812L0.78125 39.2187" stroke="white" stroke-miterlimit="10" stroke-linecap="round" stroke-linejoin="round"/>
<path d="M11.1291 33.2908L6.30566 38.1143" stroke="white" stroke-miterlimit="10" stroke-linecap="round" stroke-linejoin="round"/>
<path d="M6.70918 28.8709L1.88574 33.6943" stroke="white" stroke-miterlimit="10" stroke-linecap="round" stroke-linejoin="round"/>
<path d="M28.1705 17.3537C26.6447 18.8795 24.1713 18.8795 22.6463 17.3537C21.1205 15.8287 21.1205 13.3553 22.6463 11.8295C24.1713 10.3046 26.6447 10.3046 28.1705 11.8295C29.6955 13.3553 29.6955 15.8287 28.1705 17.3537Z" stroke="white" stroke-miterlimit="10" stroke-linecap="round" stroke-linejoin="round"/>
<path d="M29.8452 2.45586L37.5437 10.1543" stroke="white" stroke-miterlimit="10" stroke-linecap="round" stroke-linejoin="round"/>
<path d="M15.5483 22.2422L22.1773 28.8711" stroke="white" stroke-miterlimit="10" stroke-linecap="round" stroke-linejoin="round"/>
</g>
</svg>
